<svg xmlns="http://www.w3.org/2000/svg" width="369" height="141" fill="none"><g clip-path="url(#a)"><path fill="#00344D" d="M127.146 109.504c-2.352 0-4.606-.308-6.762-.924-2.156-.644-3.892-1.47-5.208-2.478l2.31-5.124c1.26.896 2.744 1.638 4.452 2.226 1.736.56 3.486.84 5.25.84 1.344 0 2.422-.126 3.234-.378.84-.28 1.456-.658 1.848-1.134a2.504 2.504 0 0 0 .588-1.638c0-.784-.308-1.4-.924-1.848-.616-.476-1.428-.854-2.436-1.134a36.748 36.748 0 0 0-3.36-.84 47.657 47.657 0 0 1-3.654-1.008 15.593 15.593 0 0 1-3.318-1.512 7.627 7.627 0 0 1-2.478-2.436c-.616-1.008-.924-2.296-.924-3.864 0-1.68.448-3.206 1.344-4.578.924-1.4 2.296-2.506 4.116-3.318 1.848-.84 4.158-1.26 6.93-1.26 1.848 0 3.668.224 5.46.672 1.792.42 3.374 1.064 4.746 1.932l-2.1 5.166c-1.372-.784-2.744-1.358-4.116-1.722a14.636 14.636 0 0 0-4.032-.588c-1.316 0-2.394.154-3.234.462-.84.308-1.442.714-1.806 1.218-.364.476-.546 1.036-.546 1.68 0 .756.308 1.372.924 1.848.616.448 1.428.812 2.436 1.092s2.114.56 3.318.84c1.232.28 2.45.602 3.654.966 1.232.364 2.352.854 3.36 1.47a7.24 7.24 0 0 1 2.436 2.436c.644 1.008.966 2.282.966 3.822a7.948 7.948 0 0 1-1.386 4.536c-.924 1.372-2.31 2.478-4.158 3.318-1.82.84-4.13 1.26-6.93 1.26ZM153.047 109.336c-2.66 0-4.732-.672-6.216-2.016-1.484-1.372-2.226-3.402-2.226-6.09V81.406h6.552v19.74c0 .952.252 1.694.756 2.226.504.504 1.19.756 2.058.756 1.036 0 1.918-.28 2.646-.84l1.764 4.62c-.672.476-1.484.84-2.436 1.092a12.26 12.26 0 0 1-2.898.336Zm-11.928-17.388v-5.04h15.666v5.04h-15.666ZM172.114 109.336c-2.408 0-4.55-.504-6.426-1.512-1.848-1.008-3.318-2.38-4.41-4.116-1.064-1.764-1.596-3.766-1.596-6.006 0-2.268.532-4.27 1.596-6.006a11.343 11.343 0 0 1 4.41-4.116c1.876-1.008 4.018-1.512 6.426-1.512 2.38 0 4.508.504 6.384 1.512 1.876.98 3.346 2.338 4.41 4.074 1.064 1.736 1.596 3.752 1.596 6.048 0 2.24-.532 4.242-1.596 6.006-1.064 1.736-2.534 3.108-4.41 4.116-1.876 1.008-4.004 1.512-6.384 1.512Zm0-5.376c1.092 0 2.072-.252 2.94-.756.868-.504 1.554-1.218 2.058-2.142.504-.952.756-2.072.756-3.36 0-1.316-.252-2.436-.756-3.36-.504-.924-1.19-1.638-2.058-2.142-.868-.504-1.848-.756-2.94-.756-1.092 0-2.072.252-2.94.756-.868.504-1.568 1.218-2.1 2.142-.504.924-.756 2.044-.756 3.36 0 1.288.252 2.408.756 3.36.532.924 1.232 1.638 2.1 2.142.868.504 1.848.756 2.94.756ZM188.883 109V86.404h6.258v6.384l-.882-1.848c.672-1.596 1.75-2.8 3.234-3.612 1.484-.84 3.29-1.26 5.418-1.26v6.048a7.67 7.67 0 0 0-.756-.042 5.763 5.763 0 0 0-.714-.042c-1.792 0-3.248.518-4.368 1.554-1.092 1.008-1.638 2.59-1.638 4.746V109h-6.552ZM210.443 117.484a11.47 11.47 0 0 1-3.486-.546c-1.148-.364-2.086-.868-2.814-1.512l2.394-4.662a5.69 5.69 0 0 0 1.722 1.05 5.6 5.6 0 0 0 1.974.378c.924 0 1.652-.224 2.184-.672.56-.42 1.064-1.134 1.512-2.142l1.176-2.772.504-.714 8.106-19.488h6.3l-10.206 23.982c-.728 1.82-1.568 3.248-2.52 4.284-.924 1.036-1.96 1.764-3.108 2.184-1.12.42-2.366.63-3.738.63Zm3.864-7.602-10.08-23.478h6.762l7.812 18.9-4.494 4.578ZM245.045 109V79.6h5.628l12.516 20.748h-2.982L272.513 79.6h5.586l.084 29.4h-6.384l-.042-19.614h1.176l-9.828 16.506h-3.066l-10.038-16.506h1.428V109h-6.384ZM298.556 109v-4.41l-.42-.966v-7.896c0-1.4-.434-2.492-1.302-3.276-.84-.784-2.142-1.176-3.906-1.176-1.204 0-2.394.196-3.57.588-1.148.364-2.128.868-2.94 1.512l-2.352-4.578c1.232-.868 2.716-1.54 4.452-2.016 1.736-.476 3.5-.714 5.292-.714 3.444 0 6.118.812 8.022 2.436 1.904 1.624 2.856 4.158 2.856 7.602V109h-6.132Zm-6.888.336c-1.764 0-3.276-.294-4.536-.882-1.26-.616-2.226-1.442-2.898-2.478-.672-1.036-1.008-2.198-1.008-3.486 0-1.344.322-2.52.966-3.528.672-1.008 1.722-1.792 3.15-2.352 1.428-.588 3.29-.882 5.586-.882h6.006v3.822h-5.292c-1.54 0-2.604.252-3.192.756a2.437 2.437 0 0 0-.84 1.89c0 .84.322 1.512.966 2.016.672.476 1.582.714 2.73.714 1.092 0 2.072-.252 2.94-.756.868-.532 1.498-1.302 1.89-2.31l1.008 3.024c-.476 1.456-1.344 2.562-2.604 3.318-1.26.756-2.884 1.134-4.872 1.134ZM323.974 109.336c-1.904 0-3.57-.42-4.998-1.26-1.428-.84-2.548-2.114-3.36-3.822-.784-1.736-1.176-3.92-1.176-6.552 0-2.66.378-4.844 1.134-6.552.756-1.708 1.848-2.982 3.276-3.822 1.428-.84 3.136-1.26 5.124-1.26 2.128 0 4.032.49 5.712 1.47 1.708.952 3.052 2.296 4.032 4.032 1.008 1.736 1.512 3.78 1.512 6.132 0 2.38-.504 4.438-1.512 6.174-.98 1.736-2.324 3.08-4.032 4.032-1.68.952-3.584 1.428-5.712 1.428Zm-13.356 7.812V86.404h6.258v4.62l-.126 6.72.42 6.678v12.726h-6.552Zm12.222-13.188c1.092 0 2.058-.252 2.898-.756.868-.504 1.554-1.218 2.058-2.142.532-.952.798-2.072.798-3.36 0-1.316-.266-2.436-.798-3.36-.504-.924-1.19-1.638-2.058-2.142-.84-.504-1.806-.756-2.898-.756s-2.072.252-2.94.756c-.868.504-1.554 1.218-2.058 2.142-.504.924-.756 2.044-.756 3.36 0 1.288.252 2.408.756 3.36.504.924 1.19 1.638 2.058 2.142.868.504 1.848.756 2.94.756ZM347.218 109.336c-1.932 0-3.794-.224-5.586-.672-1.764-.476-3.164-1.064-4.2-1.764l2.184-4.704c1.036.644 2.254 1.176 3.654 1.596 1.428.392 2.828.588 4.2.588 1.512 0 2.576-.182 3.192-.546.644-.364.966-.868.966-1.512 0-.532-.252-.924-.756-1.176-.476-.28-1.12-.49-1.932-.63-.812-.14-1.708-.28-2.688-.42a37.53 37.53 0 0 1-2.898-.546 10.41 10.41 0 0 1-2.688-1.092 5.668 5.668 0 0 1-1.974-1.932c-.476-.812-.714-1.862-.714-3.15 0-1.428.406-2.688 1.218-3.78.84-1.092 2.044-1.946 3.612-2.562 1.568-.644 3.444-.966 5.628-.966 1.54 0 3.108.168 4.704.504 1.596.336 2.926.826 3.99 1.47l-2.184 4.662c-1.092-.644-2.198-1.078-3.318-1.302a14.174 14.174 0 0 0-3.192-.378c-1.456 0-2.52.196-3.192.588-.672.392-1.008.896-1.008 1.512 0 .56.238.98.714 1.26.504.28 1.162.504 1.974.672.812.168 1.694.322 2.646.462.98.112 1.96.294 2.94.546.98.252 1.862.616 2.646 1.092a5.32 5.32 0 0 1 1.974 1.89c.504.784.756 1.82.756 3.108 0 1.4-.42 2.646-1.26 3.738-.84 1.064-2.058 1.904-3.654 2.52-1.568.616-3.486.924-5.754.924ZM124.362 61.776h6.164V34.61h10.367V29H114v5.611h10.366l-.004 27.165ZM160.739 52.284c.887-9.491-3.922-14.26-11.628-14.26-7.471 0-12.234 5.05-12.234 12.063 0 7.387 4.717 12.296 12.655 12.296 3.502 0 7.472-1.216 9.9-3.746l-3.642-3.6c-1.308 1.355-4.063 2.15-6.164 2.15-4.016 0-6.492-2.057-6.865-4.908l17.978.005Zm-17.885-4.722c.841-2.993 3.362-4.489 6.451-4.489 3.269 0 5.604 1.496 5.977 4.489h-12.428ZM165.129 38.725v23.05h5.697V49.62c0-4.254 2.756-5.844 5.743-5.844 1.868 0 2.943.516 4.111 1.495l2.568-4.955c-1.261-1.263-3.549-2.196-5.934-2.196-2.335 0-4.717.422-6.492 3.274l-.42-2.665-5.273-.003ZM185.395 38.725v23.05h5.697V49.62c0-4.254 2.756-5.844 5.745-5.844 1.867 0 2.941.516 4.109 1.495l2.568-4.955c-1.261-1.263-3.549-2.196-5.934-2.196-2.335 0-4.717.422-6.492 3.274l-.419-2.665-5.274-.003ZM223.734 41.91c-1.308-2.291-4.25-3.747-7.332-3.747-6.725-.047-11.997 4.114-11.997 12.062 0 8.089 5.043 12.297 11.861 12.25 2.568-.046 6.164-1.356 7.472-4.067l.28 3.366h5.369V38.725h-5.471l-.182 3.184Zm-6.818 1.356c8.966 0 8.966 13.98 0 13.98-3.783 0-6.818-2.619-6.818-7.014 0-4.396 3.035-6.972 6.818-6.972v.006ZM252.406 41.11c-2.661-2.338-5.37-3.04-8.966-3.04-4.203 0-9.713 1.87-9.713 7.2 0 5.237 5.184 6.827 9.526 7.155 3.269.186 4.577.841 4.577 2.431 0 1.68-2.008 2.806-4.156 2.758-2.569-.047-6.304-1.403-7.938-3.23l-2.802 4.072c3.367 3.507 7.004 4.12 10.647 4.12 6.579 0 9.899-3.506 9.899-7.574 0-6.124-5.51-7.104-9.853-7.387-2.941-.188-4.296-1.034-4.296-2.524 0-1.45 1.494-2.292 4.203-2.292 2.193 0 4.063.517 5.697 2.058l3.175-3.747ZM267.956 38.258c-7.332 0-11.908 5.425-11.908 12.012 0 6.64 4.483 12.013 11.954 12.013 7.471 0 11.998-5.377 11.998-12.013.004-6.588-4.713-12.012-12.044-12.012Zm.046 5.19c3.83 0 6.258 3.366 6.258 6.825 0 3.507-2.101 6.78-6.258 6.78s-6.257-3.273-6.257-6.78c0-3.455 2.148-6.825 6.257-6.825Z"/><path fill="#FFCD03" d="M82.286 89.398c-4.022-2.118-6.805-5.777-7.636-9.994-.477-2.434-.463-3.688.071-6.701.731-4.11.547-7.382-.607-10.738-.622-1.812-2.33-4.795-3.503-6.12-.488-.553-.873-1.067-.858-1.13.016-.064.749-.34 1.61-.613 1.768-.56 4.799-2.31 6.301-3.658 1.548-1.375 3.043-2.918 3.995-4.715 1.79-3.377 2.86-6.626 2.748-10.288-.06-1.851-.53-4.545-1.058-6.065-.154-.443-.244-.826-.192-.85.183-.107 3.096 2.164 5.083 3.957a48.1 48.1 0 0 1 13.645 21.122 48.157 48.157 0 0 1 1.126 25.13c-.769 3.434-1.483 4.952-3.377 7.149a14.596 14.596 0 0 1-10.52 5.034c-1.903.069-5.21-.667-6.828-1.522v.002Z"/><path fill="#009147" d="M40.748 113.905c-7.464-4.133-9.797-13.81-5.021-20.827a14.408 14.408 0 0 1 9.818-6.149c1.654-.254 3.45-.148 6.4.386 5.194.924 9.383.238 13.677-2.244a22.598 22.598 0 0 0 2.962-2.1c.702-.615 1.296-1.085 1.32-1.043.023.043.294.74.605 1.555 2.087 5.459 6.54 9.676 12.207 11.584 3.795 1.28 8.494 1.244 12.31-.088.757-.264 1.355-.395 1.327-.29-.11.413-2.953 4.147-4.384 5.759a48.644 48.644 0 0 1-29.21 15.76c-7.692 1.115-17.739.063-22.01-2.303Z"/><path fill="#00344D" d="M27.558 107.567C14.701 98.314 6.952 82.402 7.616 66.637c.192-4.682 1.327-10.66 2.479-13.15 2.212-4.784 6.899-8.233 12.344-8.353 2.99-.065 5.825.462 8.38 2.14 3.5 2.322 5.796 5.632 6.554 9.453.452 2.288.408 3.828-.192 6.875-.59 2.967-.683 4.07-.531 6.256.279 3.992 2.28 8.69 4.839 11.362.498.52.896.995.883 1.057-.014.062-.54.28-1.17.483-.924.335-1.824.735-2.692 1.196-5.413 2.889-9.157 8.04-10.086 13.865-.616 3.852-.385 6.355.962 10.399.28.809.13.755-1.828-.653Z"/><path fill="#F99D1C" d="M41.754 53.378c-1.463-4.733-5.423-9.22-10.143-11.488a21.31 21.31 0 0 0-7.984-1.926c-2.08-.089-4.462.364-6.18.926l-1.644.537.66-.887c2.104-2.854 2.708-3.603 4.16-5.154A48.259 48.259 0 0 1 46.151 21.07c4.833-.984 9.143-1.215 15.178-.816 2.555.169 7.378.914 10.463 2.792 2.652 1.612 5.124 4.194 6.272 6.884.77 1.797 1.287 4.589 1.192 6.384-.094 1.794-.815 4.487-1.632 6.096-1.891 3.727-5.722 6.592-9.94 7.436-2.245.45-3.74.385-7.162-.287-3.422-.672-5.368-.717-8.215-.168-3.417.66-6.731 2.253-9.17 4.406-.529.468-.962.842-.977.834-.015-.008-.192-.578-.402-1.252h-.004Z"/></g><defs><clipPath id="a"><path fill="#fff" d="M0 0h369v141H0z"/></clipPath></defs></svg>