<svg xmlns="http://www.w3.org/2000/svg" width="1960" height="537" fill="none"><g clip-path="url(#a)"><path fill="#00344D" d="M690.397 425.228h47.786V214.642h80.369v-43.499H610.068v43.499h80.359l-.03 210.586Zm282.002-73.58c6.881-73.58-30.403-110.55-90.14-110.55-57.916 0-94.841 39.143-94.841 93.517 0 57.268 36.565 95.319 98.101 95.319 27.153 0 57.927-9.422 76.749-29.039l-28.233-27.908c-10.141 10.504-31.494 16.673-47.785 16.673-31.134 0-50.326-15.952-53.216-38.052l139.365.04Zm-138.645-36.61c6.52-23.201 26.063-34.797 50.005-34.797 25.343 0 43.445 11.596 46.335 34.797h-96.34Zm172.676-68.503v178.693h44.17V330.99c0-32.985 21.36-45.312 44.52-45.312 14.48 0 22.82 4.006 31.87 11.596l19.91-38.412c-9.78-9.793-27.51-17.023-46.01-17.023-18.1 0-36.56 3.264-50.32 25.374l-3.26-20.658-40.88-.02Zm157.11 0v178.693h44.17V330.99c0-32.985 21.36-45.312 44.53-45.312 14.47 0 22.8 4.006 31.85 11.596l19.92-38.412c-9.78-9.793-27.52-17.023-46.01-17.023-18.1 0-36.56 3.264-50.32 25.374l-3.25-20.658-40.89-.02Zm297.21 24.684c-10.14-17.754-32.94-29.04-56.83-29.04-52.14-.37-93.01 31.894-93.01 93.507 0 62.706 39.09 95.33 91.95 94.969 19.91-.36 47.78-10.514 57.92-31.533l2.17 26.096h41.63V246.535h-42.42l-1.41 24.684Zm-52.85 10.514c69.51 0 69.51 108.377 0 108.377-29.33 0-52.86-20.297-52.86-54.374 0-34.076 23.53-54.043 52.86-54.043v.04Zm275.13-16.713c-20.63-18.124-41.64-23.562-69.51-23.562-32.58 0-75.3 14.5-75.3 55.816 0 40.595 40.19 52.922 73.85 55.465 25.34 1.442 35.48 6.519 35.48 18.846 0 13.018-15.57 21.75-32.22 21.379-19.91-.36-48.86-10.875-61.54-25.034l-21.72 31.563c26.1 27.187 54.3 31.943 82.54 31.943 51.01 0 76.74-27.186 76.74-58.719 0-47.475-42.71-55.075-76.38-57.268-22.8-1.452-33.3-8.011-33.3-19.567 0-11.235 11.58-17.764 32.58-17.764 17 0 31.49 4.006 44.17 15.952l24.61-29.05Zm120.54-22.11c-56.83 0-92.31 42.057-92.31 93.127 0 51.47 34.76 93.126 92.67 93.126 57.92 0 93.01-41.686 93.01-93.126.03-51.08-36.53-93.127-93.37-93.127Zm.36 40.235c29.7 0 48.52 26.095 48.52 52.912 0 27.187-16.29 52.561-48.52 52.561-32.22 0-48.5-25.374-48.5-52.561 0-26.787 16.65-52.912 48.5-52.912Z"/><path fill="#FFCD03" d="M412.286 376.472c-20.912-11.015-35.384-30.041-39.704-51.971-2.48-12.657-2.41-19.176.37-34.847 3.8-21.369 2.84-38.382-3.16-55.836-3.231-9.423-12.112-24.934-18.212-31.823-2.541-2.874-4.541-5.548-4.461-5.878.08-.331 3.89-1.763 8.371-3.185 9.191-2.914 24.953-12.016 32.764-19.026 8.051-7.149 15.821-15.17 20.772-24.513 9.311-17.564 14.872-34.457 14.292-53.503-.31-9.623-2.761-23.632-5.501-31.532-.8-2.304-1.27-4.296-1-4.427.95-.55 16.102 11.256 26.433 20.578a250.104 250.104 0 0 1 70.951 109.839 250.361 250.361 0 0 1 5.857 130.678c-4 17.855-7.71 25.745-17.562 37.171a75.915 75.915 0 0 1-24.628 18.796 75.83 75.83 0 0 1-30.078 7.38c-9.891.36-27.093-3.465-35.504-7.911v.01Z"/><path fill="#009147" d="M196.292 503.905c-38.814-21.489-50.946-71.808-26.113-108.297a74.936 74.936 0 0 1 22.177-21.352 74.848 74.848 0 0 1 28.879-10.622c8.601-1.321 17.942-.771 33.284 2.003 27.003 4.807 48.785 1.242 71.117-11.666a117.458 117.458 0 0 0 15.402-10.925c3.651-3.194 6.741-5.637 6.861-5.417.12.22 1.53 3.845 3.15 8.081 10.852 28.389 34.004 50.318 63.477 60.242 19.733 6.649 44.165 6.469 64.008-.461 3.94-1.372 7.05-2.053 6.9-1.512-.57 2.153-15.351 21.569-22.792 29.951-39.479 44.292-93.239 73.297-151.897 81.951-39.995 5.798-92.241.331-114.453-11.976Z"/><path fill="#00344D" d="M127.704 470.95C60.847 422.835 20.552 340.092 24.003 258.111c1-24.343 6.9-55.425 12.891-68.383 11.502-24.874 35.874-42.808 64.187-43.429 15.552-.341 30.294 2.403 43.575 11.125 18.202 12.076 30.144 29.29 34.084 49.157 2.35 11.896 2.12 19.907-1 35.748-3.07 15.431-3.55 21.169-2.76 32.535 1.45 20.758 11.861 45.191 25.163 59.08 2.59 2.704 4.66 5.177 4.59 5.497-.07.321-2.81 1.452-6.081 2.514a108.532 108.532 0 0 0-14.001 6.218c-28.143 15.021-47.616 41.807-52.446 72.098-3.2 20.028-2 33.045 5 54.074 1.461 4.206.681 3.925-9.501-3.395Z"/><path fill="#F99D1C" d="M201.523 189.167c-7.611-24.613-28.204-47.945-52.746-59.741a110.84 110.84 0 0 0-41.515-10.014c-10.821-.46-23.203 1.893-32.134 4.817l-8.55 2.794 3.43-4.617c10.941-14.84 14.081-18.735 21.632-26.796a250.946 250.946 0 0 1 132.745-74.451c25.133-5.117 47.545-6.319 78.929-4.246 13.281.881 38.364 4.756 54.406 14.52 13.792 8.381 26.643 21.81 32.614 35.798 4 9.343 6.69 23.863 6.2 33.196-.49 9.332-4.24 23.331-8.491 31.703-9.831 19.376-29.753 34.276-51.685 38.662-11.672 2.343-19.453 2.003-37.245-1.492-17.792-3.495-27.913-3.725-42.714-.871-17.772 3.435-35.004 11.716-47.686 22.911-2.75 2.433-5 4.376-5.08 4.336-.08-.04-1-3.004-2.09-6.509h-.02Z"/><path fill="#00344D" d="M1899.21 242.77v-31.563h-11.26v-6.429h30.16v6.429h-11.2v31.563h-7.7Zm24.15 0v-37.992h11.46l6.89 25.916 6.8-25.916H1960v37.992h-7.11v-29.911l-7.53 29.911h-7.38l-7.51-29.911v29.911h-7.11Z"/></g><defs><clipPath id="a"><path fill="#fff" d="M0 0h1960v537H0z"/></clipPath></defs></svg>