<?xml version="1.0" encoding="UTF-8" standalone="no"?><!DOCTYPE svg PUBLIC "-//W3C//DTD SVG 1.1//EN" "http://www.w3.org/Graphics/SVG/1.1/DTD/svg11.dtd"><svg width="100%" height="100%" viewBox="0 0 1960 537" version="1.1" xmlns="http://www.w3.org/2000/svg" xmlns:xlink="http://www.w3.org/1999/xlink" xml:space="preserve" xmlns:serif="http://www.serif.com/" style="fill-rule:evenodd;clip-rule:evenodd;stroke-linejoin:round;stroke-miterlimit:2;"><rect id="Page-1" serif:id="Page 1" x="0" y="0" width="1960" height="537" style="fill:none;"/><g id="Layer-2" serif:id="Layer 2"></g><g id="Layer-1" serif:id="Layer 1"><path d="M413.04,377.154c-20.912,-11.015 -35.384,-30.041 -39.704,-51.971c-2.48,-12.657 -2.41,-19.176 0.37,-34.847c3.8,-21.369 2.84,-38.382 -3.16,-55.836c-3.231,-9.423 -12.112,-24.934 -18.212,-31.823c-2.541,-2.874 -4.541,-5.548 -4.461,-5.878c0.08,-0.331 3.89,-1.763 8.371,-3.185c9.191,-2.914 24.953,-12.016 32.764,-19.026c8.051,-7.149 15.821,-15.17 20.772,-24.513c9.311,-17.564 14.872,-34.457 14.292,-53.503c-0.31,-9.623 -2.761,-23.632 -5.501,-31.532c-0.8,-2.304 -1.27,-4.296 -1,-4.427c0.95,-0.55 16.102,11.256 26.433,20.578c32.972,29.673 57.46,67.582 70.951,109.839c13.498,42.271 15.52,87.369 5.857,130.678c-4,17.855 -7.71,25.745 -17.562,37.171c-6.83,7.892 -15.214,14.29 -24.628,18.796c-9.412,4.503 -19.651,7.015 -30.078,7.38c-9.891,0.36 -27.093,-3.465 -35.504,-7.911l0,0.01Z" style="fill:#ffcd03;fill-rule:nonzero;"/><path d="M197.046,504.587c-38.814,-21.489 -50.946,-71.808 -26.113,-108.297c5.835,-8.575 13.387,-15.846 22.177,-21.352c8.787,-5.503 18.621,-9.12 28.879,-10.622c8.601,-1.321 17.942,-0.771 33.284,2.003c27.003,4.807 48.785,1.242 71.117,-11.666c5.419,-3.222 10.57,-6.876 15.402,-10.925c3.651,-3.194 6.741,-5.637 6.861,-5.417c0.12,0.22 1.53,3.845 3.15,8.081c10.852,28.389 34.004,50.318 63.477,60.242c19.733,6.649 44.165,6.469 64.008,-0.461c3.94,-1.372 7.05,-2.053 6.9,-1.512c-0.57,2.153 -15.351,21.569 -22.792,29.951c-39.479,44.292 -93.239,73.297 -151.897,81.951c-39.995,5.798 -92.241,0.331 -114.453,-11.976Z" style="fill:#009147;fill-rule:nonzero;"/><path d="M128.458,471.632c-66.857,-48.115 -107.152,-130.858 -103.701,-212.839c1,-24.343 6.9,-55.425 12.891,-68.383c11.502,-24.874 35.874,-42.808 64.187,-43.429c15.552,-0.341 30.294,2.403 43.575,11.125c18.202,12.076 30.144,29.29 34.084,49.157c2.35,11.896 2.12,19.907 -1,35.748c-3.07,15.431 -3.55,21.169 -2.76,32.535c1.45,20.758 11.861,45.191 25.163,59.08c2.59,2.704 4.66,5.177 4.59,5.497c-0.07,0.321 -2.81,1.452 -6.081,2.514c-4.808,1.74 -9.486,3.818 -14.001,6.218c-28.143,15.021 -47.616,41.807 -52.446,72.098c-3.2,20.028 -2,33.045 5,54.074c1.461,4.206 0.681,3.925 -9.501,-3.395Z" style="fill:#00344d;fill-rule:nonzero;"/><path d="M202.277,189.849c-7.611,-24.613 -28.204,-47.945 -52.746,-59.741c-13.058,-5.998 -27.158,-9.399 -41.515,-10.014c-10.821,-0.46 -23.203,1.893 -32.134,4.817l-8.55,2.794l3.43,-4.617c10.941,-14.84 14.081,-18.735 21.632,-26.796c35.474,-37.96 81.856,-63.974 132.745,-74.451c25.133,-5.117 47.545,-6.319 78.929,-4.246c13.281,0.881 38.364,4.756 54.406,14.52c13.792,8.381 26.643,21.81 32.614,35.798c4,9.343 6.69,23.863 6.2,33.196c-0.49,9.332 -4.24,23.331 -8.491,31.703c-9.831,19.376 -29.753,34.276 -51.685,38.662c-11.672,2.343 -19.453,2.003 -37.245,-1.492c-17.792,-3.495 -27.913,-3.725 -42.714,-0.871c-17.772,3.435 -35.004,11.716 -47.686,22.911c-2.75,2.433 -5,4.376 -5.08,4.336c-0.08,-0.04 -1,-3.004 -2.09,-6.509l-0.02,0Z" style="fill:#f99d1c;fill-rule:nonzero;"/><g><path d="M684.293,482.016c40.076,0 66.638,-19.805 66.638,-49.862c0,-27.727 -19.339,-41.707 -65.473,-48.464c-27.494,-3.961 -39.144,-11.417 -39.144,-24.465c0,-13.281 15.145,-22.834 36.581,-22.834c16.077,0 32.853,5.359 46.367,15.611l13.747,-19.339c-16.543,-12.815 -38.678,-20.271 -60.347,-20.271c-37.28,0 -63.143,19.339 -63.143,46.6c0,28.659 18.873,43.338 63.143,49.396c28.193,3.728 40.775,10.951 40.775,24.465c0,14.679 -15.378,24.232 -39.144,24.232c-20.038,0 -40.775,-6.99 -54.522,-18.407l-14.213,20.504c19.106,14.679 44.037,22.834 68.735,22.834Z" style="fill:#00344d;fill-rule:nonzero;"/><path d="M839.471,453.823c-4.427,2.097 -9.786,3.495 -14.446,3.495c-10.718,0 -16.077,-6.524 -16.077,-18.174l0,-53.357l33.086,0l0,-22.135l-33.086,0l0,-32.853l-25.863,2.796l0,30.057l-21.669,0l0,22.135l21.669,0l0,53.357c0,27.494 13.98,41.241 37.746,41.241c9.553,0 17.009,-1.631 25.863,-5.592l-7.223,-20.97Z" style="fill:#00344d;fill-rule:nonzero;"/><path d="M920.089,481.317c37.28,0 61.279,-25.63 61.279,-60.114c0,-34.484 -23.999,-60.114 -61.279,-60.114c-37.513,0 -61.512,25.63 -61.512,60.114c0,34.484 23.999,60.114 61.512,60.114Zm0,-23.766c-21.669,0 -35.416,-16.31 -35.416,-36.348c0,-20.038 13.747,-36.348 35.416,-36.348c21.436,0 35.183,16.31 35.183,36.348c0,20.038 -13.747,36.348 -35.183,36.348Z" style="fill:#00344d;fill-rule:nonzero;"/><path d="M1064.083,361.322c-14.446,0 -25.863,6.058 -34.95,20.038l-0.233,-17.708l-23.3,0l0,115.102l26.096,0l0,-56.153c0,-22.601 11.883,-36.348 30.523,-36.348c6.99,0 12.815,1.864 19.339,6.291l11.65,-21.203c-6.99,-6.291 -17.941,-10.019 -29.125,-10.019Z" style="fill:#00344d;fill-rule:nonzero;"/><path d="M1191.534,363.652l-21.669,52.425l-13.281,33.086l-11.883,-33.086l-20.038,-52.425l-27.96,0l45.435,114.403l-23.3,53.823l28.426,0l72.23,-168.226l-27.96,0Z" style="fill:#00344d;fill-rule:nonzero;"/><path d="M1444.107,315.654l-61.978,78.987l-61.978,-78.987l-24.698,0l0,163.1l27.261,0l0,-116.733l56.386,71.531l5.825,0l56.619,-71.764l0,116.966l27.028,0l0,-163.1l-24.465,0Z" style="fill:#00344d;fill-rule:nonzero;"/><path d="M1593.692,363.652l-0.233,15.378c-8.854,-11.184 -23.999,-17.941 -41.94,-17.941c-33.785,0 -57.085,24.698 -57.085,60.114c0,35.416 23.3,60.114 57.085,60.114c17.708,0 33.086,-6.757 41.94,-17.941l0.233,15.378l23.3,0l0,-115.102l-23.3,0Zm-37.979,93.899c-20.737,0 -35.183,-14.912 -35.183,-36.348c0,-21.436 14.446,-36.348 35.183,-36.348c20.737,0 35.183,14.912 35.183,36.348c0,21.436 -14.446,36.348 -35.183,36.348Z" style="fill:#00344d;fill-rule:nonzero;"/><path d="M1714.153,361.089c-17.708,0 -33.086,6.757 -41.94,17.941l-0.233,-15.378l-23.3,0l0,168.226l26.096,0l0,-65.706c9.087,9.553 23.3,15.145 39.377,15.145c33.785,0 57.085,-24.698 57.085,-60.114c0,-35.416 -23.3,-60.114 -57.085,-60.114Zm-4.194,96.462c-20.504,0 -35.183,-14.912 -35.183,-36.348c0,-21.436 14.679,-36.348 35.183,-36.348c20.737,0 35.183,14.912 35.183,36.348c0,21.436 -14.446,36.348 -35.183,36.348Z" style="fill:#00344d;fill-rule:nonzero;"/><path d="M1837.876,481.55c29.824,0 49.629,-14.446 49.629,-35.882c0,-21.669 -14.912,-32.62 -48.93,-36.348c-16.776,-1.864 -23.533,-5.825 -23.533,-13.281c0,-8.388 8.854,-13.048 25.397,-13.048c11.883,0 22.834,3.262 33.086,9.786l11.417,-18.64c-12.815,-8.854 -28.193,-13.281 -45.668,-13.281c-29.824,0 -49.862,14.213 -49.862,35.183c0,20.038 17.009,32.62 47.066,35.416c17.708,1.864 25.164,5.825 25.164,13.98c0,8.388 -8.388,13.048 -23.067,13.048c-15.145,0 -30.29,-4.66 -40.542,-12.815l-12.116,18.873c15.378,11.417 32.62,17.009 51.959,17.009Z" style="fill:#00344d;fill-rule:nonzero;"/></g><path d="M1803.93,113.209c29.7,0 48.52,26.095 48.52,52.912c0,27.187 -16.29,52.561 -48.52,52.561c-32.22,0 -48.5,-25.374 -48.5,-52.561c0,-26.787 16.65,-52.912 48.5,-52.912m-0.36,-40.235c-56.83,0 -92.31,42.057 -92.31,93.127c0,51.47 34.76,93.126 92.67,93.126c57.92,0 93.01,-41.686 93.01,-93.126c0.03,-51.08 -36.53,-93.127 -93.37,-93.127Zm-120.54,22.11c-20.63,-18.124 -41.64,-23.562 -69.51,-23.562c-32.58,0 -75.3,14.5 -75.3,55.816c0,40.595 40.19,52.922 73.85,55.465c25.34,1.442 35.48,6.519 35.48,18.846c0,13.018 -15.57,21.75 -32.22,21.379c-19.91,-0.36 -48.86,-10.875 -61.54,-25.034l-21.72,31.563c26.1,27.187 54.3,31.943 82.54,31.943c51.01,0 76.74,-27.186 76.74,-58.719c0,-47.475 -42.71,-55.075 -76.38,-57.268c-22.8,-1.452 -33.3,-8.011 -33.3,-19.567c0,-11.235 11.58,-17.764 32.58,-17.764c17,0 31.49,4.006 44.17,15.952l24.61,-29.05Zm-275.13,16.713c69.51,0 69.51,108.377 0,108.377c-29.33,0 -52.86,-20.297 -52.86,-54.374c0,-34.076 23.53,-54.043 52.86,-54.043l0,0.04Zm52.85,-10.514c-10.14,-17.754 -32.94,-29.04 -56.83,-29.04c-52.14,-0.37 -93.01,31.894 -93.01,93.507c0,62.706 39.09,95.33 91.95,94.969c19.91,-0.36 47.78,-10.514 57.92,-31.533l2.17,26.096l41.63,0l0,-178.683l-42.42,0l-1.41,24.684Zm-297.21,-24.684l0,178.693l44.17,0l0,-94.238c0,-32.985 21.36,-45.312 44.53,-45.312c14.47,0 22.8,4.006 31.85,11.596l19.92,-38.412c-9.78,-9.793 -27.52,-17.023 -46.01,-17.023c-18.1,0 -36.56,3.264 -50.32,25.374l-3.25,-20.658l-40.89,-0.02Zm-157.11,0l0,178.693l44.17,0l0,-94.238c0,-32.985 21.36,-45.312 44.52,-45.312c14.48,0 22.82,4.006 31.87,11.596l19.91,-38.412c-9.78,-9.793 -27.51,-17.023 -46.01,-17.023c-18.1,0 -36.56,3.264 -50.32,25.374l-3.26,-20.658l-40.88,-0.02Zm-172.676,68.503c6.52,-23.201 26.063,-34.797 50.005,-34.797c25.343,0 43.445,11.596 46.335,34.797l-96.34,0Zm138.645,36.61c6.881,-73.58 -30.403,-110.55 -90.14,-110.55c-57.916,0 -94.841,39.143 -94.841,93.517c0,57.268 36.565,95.319 98.101,95.319c27.153,0 57.927,-9.422 76.749,-29.039l-28.233,-27.908c-10.141,10.504 -31.494,16.673 -47.785,16.673c-31.134,0 -50.326,-15.952 -53.216,-38.052l139.365,0.04Zm-282.002,73.58l47.786,0l0,-210.586l80.369,0l0,-43.499l-208.484,0l0,43.499l80.359,0l-0.03,210.586Z" style="fill:#00344d;fill-rule:nonzero;"/><path d="M1923.36,72.834l0,-37.992l11.46,0l6.89,25.916l6.8,-25.916l11.49,0l0,37.992l-7.11,0l0,-29.911l-7.53,29.911l-7.38,0l-7.51,-29.911l0,29.911l-7.11,0Zm-24.15,0l0,-31.563l-11.26,0l0,-6.429l30.16,0l0,6.429l-11.2,0l0,31.563l-7.7,0Z" style="fill:#00344d;fill-rule:nonzero;"/></g></svg>