<svg viewBox="0 0 907 254" xmlns="http://www.w3.org/2000/svg" fill-rule="evenodd" clip-rule="evenodd" stroke-linejoin="round" stroke-miterlimit="2"><path fill="none" d="M0-.003h906.336v253.334H0z"/><path d="M326.106 200.599h22.57v-99.347h37.96V80.733h-98.49v20.52h37.96v99.346zM459.308 165.887c3.249-34.711-14.363-52.152-42.577-52.152-27.359 0-44.8 18.467-44.8 44.116 0 27.016 17.27 44.97 46.339 44.97 12.824 0 27.359-4.445 36.25-13.679l-13.337-13.166c-4.788 4.959-14.876 7.865-22.571 7.865-14.705 0-23.768-7.523-25.136-17.954h65.832zm-65.49-17.27c3.078-10.943 12.311-16.415 23.597-16.415 11.97 0 20.519 5.472 21.887 16.415h-45.484zM475.382 116.3v84.299h20.862V156.14c0-15.56 10.088-21.374 21.032-21.374 6.84 0 10.772 1.88 15.047 5.471l9.404-18.125c-4.616-4.617-12.995-8.036-21.716-8.036-8.55 0-17.27 1.539-23.767 11.97l-1.54-9.747h-19.322zM549.592 116.3v84.299h20.86V156.14c0-15.56 10.09-21.374 21.033-21.374 6.84 0 10.772 1.88 15.047 5.471l9.405-18.125c-4.617-4.617-12.996-8.036-21.716-8.036-8.55 0-17.27 1.539-23.768 11.97l-1.54-9.747h-19.321zM689.975 127.927c-4.788-8.379-15.56-13.68-26.846-13.68-24.623-.17-43.945 15.048-43.945 44.117 0 29.581 18.467 44.97 43.432 44.8 9.405-.171 22.571-4.96 27.359-14.877L691 200.6h19.664v-84.3h-20.006l-.684 11.628zm-24.965 4.959c32.83 0 32.83 51.126 0 51.126-13.85 0-24.965-9.575-24.965-25.648 0-16.074 11.115-25.478 24.965-25.478zM794.966 125.02c-9.746-8.55-19.664-11.114-32.83-11.114-15.39 0-35.567 6.84-35.567 26.332 0 19.152 18.98 24.965 34.883 26.162 11.97.684 16.757 3.078 16.757 8.892 0 6.156-7.353 10.26-15.218 10.088-9.405-.17-23.084-5.13-29.07-11.798l-10.259 14.876c12.312 12.825 25.65 15.048 38.987 15.048 24.11 0 36.25-12.825 36.25-27.701 0-22.4-20.177-25.991-36.08-27.017-10.772-.684-15.73-3.762-15.73-9.234 0-5.3 5.471-8.378 15.389-8.378 8.036 0 14.876 1.88 20.86 7.523l11.628-13.679zM851.906 114.59c-26.846 0-43.603 19.835-43.603 43.945 0 24.28 16.415 43.945 43.774 43.945s43.945-19.664 43.945-43.945c0-24.11-17.27-43.945-44.116-43.945zm.17 18.98c14.022 0 22.914 12.311 22.914 24.965 0 12.824-7.695 24.793-22.913 24.793-15.219 0-22.913-11.969-22.913-24.793 0-12.654 7.865-24.965 22.913-24.965z" fill="#5e5547" fill-rule="nonzero"/><g fill-rule="nonzero"><path d="M194.741 177.599c-9.88-5.213-16.714-14.147-18.754-24.52-1.173-5.967-1.141-9.047.176-16.439 1.793-10.08 1.338-18.105-1.493-26.34-1.53-4.445-5.72-11.76-8.602-15.01-1.216-1.373-2.166-2.62-2.108-2.772.057-.152 1.836-.828 3.954-1.5 4.34-1.377 11.787-5.688 15.475-8.96 3.804-3.372 7.474-7.156 9.811-11.562 4.396-8.286 7.026-16.253 6.752-25.238-.149-4.544-1.304-11.15-2.601-14.878-.378-1.086-.6-2.025-.493-2.087.446-.258 7.604 5.308 12.484 9.709 31.754 28.634 45.6 71.89 36.31 113.442-1.883 8.42-3.645 12.145-8.297 17.534-6.48 7.509-15.843 11.982-25.847 12.353-4.67.171-12.797-1.637-16.767-3.732z" fill="#dcb562"/><path d="M92.718 237.718c-18.334-10.142-24.064-33.876-12.336-51.094 5.568-8.177 14.163-13.551 24.118-15.08 4.06-.623 8.476-.363 15.719.925 12.76 2.269 23.046.584 33.592-5.504 2.278-1.317 5.554-3.626 7.28-5.134 1.726-1.508 3.184-2.66 3.24-2.558.055.1.726 1.816 1.49 3.811 5.126 13.395 16.038 23.738 29.985 28.424 9.319 3.132 20.858 3.048 30.25-.219 1.863-.648 3.33-.969 3.26-.713-.272 1.016-7.252 10.173-10.767 14.127-18.526 20.828-44.236 34.683-71.746 38.66-18.918 2.735-43.593.16-54.085-5.645z" fill="#77a558"/><path d="M60.32 222.168c-31.578-22.697-50.614-61.73-48.965-100.407.49-11.486 3.259-26.146 6.09-32.259 5.435-11.734 16.944-20.195 30.319-20.487 7.346-.162 14.308 1.131 20.583 5.248 8.598 5.696 14.236 13.818 16.096 23.19 1.113 5.609 1.005 9.388-.48 16.865-1.448 7.278-1.677 9.984-1.302 15.347.684 9.79 5.6 21.318 11.886 27.873 1.223 1.277 2.198 2.446 2.166 2.597-.033.15-1.327.685-2.873 1.187-1.548.5-4.518 1.82-6.599 2.93-13.292 7.095-22.489 19.726-24.773 34.024-1.511 9.448-.94 15.576 2.38 25.531.65 1.95.28 1.816-4.528-1.639z" fill="#338dad"/><path d="M95.188 89.236C91.594 77.623 81.867 66.62 70.275 61.052c-4.71-2.262-11.865-4.398-19.612-4.726-5.11-.217-10.96.89-15.177 2.273l-4.039 1.322 1.609-2.178c5.168-7.004 6.652-8.838 10.22-12.643 16.84-17.957 38.804-30.258 62.7-35.12 11.874-2.415 22.457-2.983 37.282-2.004 6.273.415 18.121 2.245 25.699 6.849 6.513 3.955 12.587 10.29 15.406 16.888 1.881 4.406 3.16 11.255 2.926 15.661-.236 4.421-2.001 11.008-4.007 14.955-4.645 9.139-14.056 16.17-24.414 18.24-5.514 1.102-9.189.954-17.592-.706-8.396-1.66-13.186-1.757-20.176-.409-8.395 1.62-16.537 5.527-22.526 10.81-1.296 1.144-2.377 2.063-2.401 2.044-.024-.021-.468-1.403-.985-3.072z" fill="#985329"/></g></svg>