<svg xmlns="http://www.w3.org/2000/svg" width="359" height="94" fill="none"><path fill="#fff" d="M123.865 76.754h8.85V37.752h14.884v-8.056h-38.612v8.056h14.883l-.005 39.002Zm52.227-13.627c1.275-13.628-5.631-20.475-16.694-20.475-10.726 0-17.565 7.25-17.565 17.32 0 10.606 6.772 17.653 18.169 17.653 5.029 0 10.728-1.745 14.214-5.378l-5.229-5.168c-1.878 1.945-5.833 3.087-8.85 3.087-5.766 0-9.321-2.954-9.856-7.047l25.811.008Zm-25.678-6.78c1.208-4.298 4.827-6.445 9.262-6.445 4.693 0 8.046 2.147 8.581 6.444h-17.843Zm31.981-12.687v33.094h8.18V59.3c0-6.11 3.956-8.392 8.246-8.392 2.682 0 4.225.742 5.901 2.147l3.688-7.114c-1.811-1.814-5.095-3.152-8.52-3.152-3.353 0-6.772.604-9.321 4.699l-.604-3.826-7.57-.004Zm29.097 0v33.094h8.18V59.3c0-6.11 3.956-8.392 8.248-8.392 2.68 0 4.223.742 5.899 2.147l3.688-7.114c-1.811-1.814-5.095-3.152-8.52-3.152-3.353 0-6.772.604-9.321 4.699l-.602-3.826-7.572-.004Zm55.045 4.57c-1.878-3.287-6.101-5.377-10.526-5.377-9.656-.069-17.226 5.906-17.226 17.317 0 11.614 7.241 17.656 17.03 17.59 3.688-.068 8.85-1.948 10.728-5.84l.402 4.832h7.709V43.66h-7.855l-.262 4.572Zm-9.789 1.948c12.873 0 12.873 20.072 0 20.072-5.431 0-9.789-3.76-9.789-10.07 0-6.311 4.358-10.01 9.789-10.01v.008Zm50.956-3.095c-3.822-3.357-7.711-4.364-12.873-4.364-6.035 0-13.946 2.685-13.946 10.337 0 7.519 7.442 9.802 13.677 10.273 4.694.267 6.572 1.207 6.572 3.49 0 2.41-2.884 4.028-5.968 3.96-3.688-.067-9.05-2.014-11.397-4.637l-4.023 5.846c4.834 5.035 10.056 5.916 15.286 5.916 9.447 0 14.213-5.035 14.213-10.875 0-8.793-7.911-10.2-14.146-10.607-4.223-.269-6.168-1.483-6.168-3.623 0-2.081 2.145-3.29 6.035-3.29 3.149 0 5.833.741 8.179 2.954l4.559-5.38Zm22.325-4.095c-10.526 0-17.096 7.789-17.096 17.247 0 9.533 6.436 17.248 17.163 17.248 10.726 0 17.226-7.72 17.226-17.248.005-9.46-6.767-17.247-17.293-17.247Zm.067 7.451c5.499 0 8.985 4.833 8.985 9.8 0 5.035-3.017 9.735-8.985 9.735s-8.984-4.7-8.984-9.735c0-4.961 3.084-9.8 8.984-9.8ZM72.357 67.724c-3.873-2.04-6.553-5.564-7.353-9.625-.46-2.344-.447-3.552.068-6.454.704-3.958.526-7.109-.585-10.341-.598-1.745-2.243-4.618-3.373-5.894-.47-.532-.84-1.027-.826-1.089.015-.06.72-.326 1.55-.59 1.703-.539 4.622-2.225 6.068-3.523 1.491-1.324 2.93-2.81 3.847-4.54 1.725-3.253 2.755-6.381 2.647-9.909-.057-1.782-.51-4.377-1.018-5.84-.149-.426-.236-.796-.186-.82.176-.102 2.983 2.085 4.896 3.812a46.32 46.32 0 0 1 13.14 20.342 46.363 46.363 0 0 1 1.085 24.202c-.741 3.307-1.428 4.768-3.252 6.884a14.039 14.039 0 0 1-10.132 4.848c-1.832.067-5.018-.641-6.576-1.465v.002Z"/><path fill="#fff" d="M32.354 91.325c-7.188-3.98-9.435-13.299-4.836-20.057a13.875 13.875 0 0 1 9.456-5.922c1.593-.244 3.323-.142 6.164.371 5.001.89 9.035.23 13.171-2.16a21.768 21.768 0 0 0 2.853-2.024c.676-.591 1.248-1.044 1.27-1.003.023.04.284.712.584 1.497 2.01 5.257 6.298 9.319 11.756 11.157 3.655 1.231 8.18 1.198 11.854-.085.73-.255 1.306-.38 1.278-.28-.105.398-2.843 3.994-4.22 5.546A46.844 46.844 0 0 1 53.55 93.543c-7.407 1.074-17.083.061-21.197-2.218Z"/><path fill="#fff" d="M19.652 85.222C7.269 76.311-.193 60.987.446 45.803.63 41.295 1.724 35.538 2.833 33.14c2.13-4.607 6.644-7.929 11.888-8.044 2.88-.063 5.61.445 8.07 2.06 3.371 2.237 5.583 5.425 6.313 9.105.435 2.203.392 3.687-.186 6.62-.568 2.858-.657 3.921-.51 6.026.268 3.845 2.196 8.37 4.66 10.942.48.5.863.959.85 1.018-.013.06-.52.269-1.127.465a20.34 20.34 0 0 0-2.593 1.152c-5.212 2.782-8.818 7.743-9.713 13.353-.593 3.71-.37 6.12.926 10.015.27.779.126.727-1.76-.629Z"/><path fill="#fff" d="M33.323 33.035c-1.41-4.56-5.223-8.88-9.769-11.065a20.524 20.524 0 0 0-7.688-1.854c-2.005-.086-4.298.35-5.952.892l-1.583.517.635-.855c2.026-2.748 2.608-3.47 4.006-4.963A46.476 46.476 0 0 1 37.557 1.92c4.655-.948 8.806-1.17 14.618-.787 2.46.163 7.105.881 10.076 2.69 2.555 1.552 4.935 4.039 6.04 6.63.742 1.73 1.24 4.419 1.149 6.147-.09 1.729-.785 4.322-1.573 5.872-1.82 3.588-5.51 6.348-9.572 7.16-2.162.434-3.603.371-6.898-.276-3.295-.647-5.17-.69-7.91-.161-3.292.636-6.484 2.17-8.832 4.243-.51.45-.926.81-.941.803-.015-.008-.185-.556-.387-1.206h-.004Zm314.419 9.927v-5.846h-2.086v-1.19h5.585v1.19h-2.073v5.846h-1.426Zm4.471 0v-7.036h2.123l1.276 4.8 1.26-4.8H359v7.036h-1.317v-5.54l-1.395 5.54h-1.367l-1.391-5.54v5.54h-1.317Z"/></svg>