<svg xmlns="http://www.w3.org/2000/svg" width="160.076" height="159.875" viewBox="7.595 315.381 160.076 159.875"><path fill="#DCB562" d="M131.402 430.14c-6.667-3.517-11.277-9.545-12.655-16.543-.791-4.027-.77-6.104.12-11.092 1.21-6.801.902-12.216-1.008-17.773-1.032-3-3.86-7.935-5.805-10.128-.82-.926-1.46-1.767-1.422-1.87.038-.102 1.239-.558 2.667-1.011 2.929-.93 7.953-3.839 10.442-6.046 2.566-2.275 5.042-4.828 6.62-7.802 2.967-5.592 4.74-10.967 4.556-17.03-.1-3.065-.88-7.524-1.756-10.039-.254-.733-.405-1.367-.331-1.408.3-.175 5.13 3.581 8.423 6.552 21.426 19.32 30.768 48.507 24.5 76.545-1.27 5.68-2.459 8.194-5.6 11.83-4.372 5.066-10.689 8.085-17.44 8.335-3.148.115-8.631-1.105-11.31-2.52z"/><path fill="#77A558" d="M62.562 470.707c-12.371-6.842-16.238-22.858-8.324-34.475 3.757-5.518 9.556-9.145 16.273-10.175 2.74-.421 5.72-.245 10.607.624 8.61 1.531 15.55.395 22.666-3.714 1.537-.889 3.748-2.445 4.913-3.464 1.164-1.016 2.148-1.794 2.184-1.726.038.068.49 1.225 1.006 2.572 3.46 9.038 10.823 16.016 20.232 19.178 6.288 2.114 14.075 2.057 20.411-.147 1.257-.438 2.247-.655 2.2-.481-.183.685-4.893 6.864-7.265 9.532-12.5 14.053-29.848 23.403-48.411 26.086-12.763 1.846-29.413.108-36.492-3.81z"/><path fill="#338DAD" d="M40.702 460.215c-21.307-15.314-34.153-41.653-33.039-67.75.33-7.751 2.2-17.643 4.11-21.768 3.667-7.917 11.433-13.626 20.456-13.824 4.958-.108 9.655.764 13.89 3.542 5.8 3.842 9.606 9.323 10.86 15.648.75 3.783.677 6.334-.324 11.38-.977 4.911-1.131 6.737-.878 10.356.461 6.607 3.779 14.385 8.019 18.808.826.861 1.483 1.65 1.462 1.752-.023.102-.895.461-1.938.8-1.044.339-3.048 1.228-4.452 1.978-8.97 4.788-15.174 13.31-16.715 22.957-1.02 6.374-.634 10.51 1.605 17.228.437 1.315.187 1.224-3.056-1.107z"/><path fill="#985329" d="M64.229 370.519c-2.425-7.836-8.989-15.26-16.81-19.017-3.178-1.527-8.006-2.969-13.234-3.19-3.448-.146-7.394.602-10.24 1.534l-2.725.892 1.085-1.47c3.488-4.726 4.49-5.963 6.896-8.532 11.364-12.116 26.182-20.417 42.306-23.697 8.011-1.629 15.153-2.013 25.156-1.352 4.233.28 12.228 1.514 17.34 4.621 4.394 2.67 8.493 6.944 10.395 11.395 1.27 2.973 2.133 7.595 1.974 10.567-.159 2.982-1.35 7.428-2.704 10.09-3.134 6.167-9.485 10.911-16.474 12.308-3.72.744-6.2.643-11.87-.476-5.665-1.12-8.897-1.185-13.614-.275-5.665 1.093-11.158 3.73-15.2 7.294-.873.773-1.603 1.393-1.62 1.38a69.518 69.518 0 01-.661-2.072z"/></svg>